{
    "asset" : {
        "generator" : "Khronos glTF Blender I/O v1.6.16",
        "version" : "2.0"
    },
    "scene" : 0,
    "scenes" : [
        {
            "name" : "Scene",
            "nodes" : [
                0,
                1,
                2,
                3,
                4,
                5,
                6,
                7,
                8,
                9,
                10,
                11
            ]
        }
    ],
    "nodes" : [
        {
            "mesh" : 0,
            "name" : "Cube",
            "translation" : [
                -0.03465473651885986,
                0.018398262560367584,
                -0.14699715375900269
            ]
        },
        {
            "mesh" : 1,
            "name" : "Cube.001",
            "translation" : [
                -0.10394065082073212,
                0.11642611026763916,
                0.6869281530380249
            ]
        },
        {
            "mesh" : 2,
            "name" : "Cube.021",
            "translation" : [
                0.08392806351184845,
                0.12030595541000366,
                -0.183262899518013
            ]
        },
        {
            "mesh" : 3,
            "name" : "Cube.020",
            "translation" : [
                0.21775086224079132,
                0.12030595541000366,
                -0.027917221188545227
            ]
        },
        {
            "mesh" : 4,
            "name" : "Cube.019",
            "translation" : [
                0.3030848205089569,
                0.12030595541000366,
                0.1401083767414093
            ]
        },
        {
            "mesh" : 5,
            "name" : "Cube.018",
            "translation" : [
                0.4109479784965515,
                0.12030595541000366,
                0.28638216853141785
            ]
        },
        {
            "mesh" : 6,
            "name" : "Cube.017",
            "translation" : [
                -0.11932603269815445,
                0.12030595541000366,
                -0.44048893451690674
            ]
        },
        {
            "mesh" : 7,
            "name" : "Cube.016",
            "translation" : [
                -0.22524547576904297,
                0.12030595541000366,
                -0.5705423355102539
            ]
        },
        {
            "mesh" : 8,
            "name" : "Cube.015",
            "translation" : [
                -0.5049456357955933,
                0.12030595541000366,
                -0.5720049142837524
            ]
        },
        {
            "mesh" : 9,
            "name" : "Cube.014",
            "translation" : [
                -0.40538763999938965,
                0.12030595541000366,
                -0.7423014640808105
            ]
        },
        {
            "mesh" : 10,
            "name" : "Cube.013",
            "rotation" : [
                0,
                0.9998173117637634,
                0,
                -0.01911337487399578
            ],
            "translation" : [
                0.4192635715007782,
                0.12030595541000366,
                0.4734834134578705
            ]
        },
        {
            "mesh" : 11,
            "name" : "Cube.012",
            "translation" : [
                -0.012440860271453857,
                0.12030595541000366,
                -0.328987181186676
            ]
        }
    ],
    "materials" : [
        {
            "doubleSided" : true,
            "name" : "Material",
            "pbrMetallicRoughness" : {
                "baseColorFactor" : [
                    0.800000011920929,
                    0.800000011920929,
                    0.800000011920929,
                    1
                ],
                "metallicFactor" : 0,
                "roughnessFactor" : 0.4000000059604645
            }
        },
        {
            "doubleSided" : true,
            "name" : "Material.003",
            "pbrMetallicRoughness" : {
                "baseColorFactor" : [
                    0,
                    0.12499158829450607,
                    0.8000000715255737,
                    1
                ],
                "metallicFactor" : 0,
                "roughnessFactor" : 0.5
            }
        }
    ],
    "meshes" : [
        {
            "name" : "Cube.001",
            "primitives" : [
                {
                    "attributes" : {
                        "POSITION" : 0,
                        "NORMAL" : 1,
                        "TEXCOORD_0" : 2
                    },
                    "indices" : 3,
                    "material" : 0
                }
            ]
        },
        {
            "name" : "Cube",
            "primitives" : [
                {
                    "attributes" : {
                        "POSITION" : 4,
                        "NORMAL" : 5,
                        "TEXCOORD_0" : 6
                    },
                    "indices" : 7,
                    "material" : 1
                }
            ]
        },
        {
            "name" : "Cube.021",
            "primitives" : [
                {
                    "attributes" : {
                        "POSITION" : 8,
                        "NORMAL" : 9,
                        "TEXCOORD_0" : 10
                    },
                    "indices" : 11,
                    "material" : 0
                }
            ]
        },
        {
            "name" : "Cube.020",
            "primitives" : [
                {
                    "attributes" : {
                        "POSITION" : 12,
                        "NORMAL" : 13,
                        "TEXCOORD_0" : 14
                    },
                    "indices" : 11,
                    "material" : 0
                }
            ]
        },
        {
            "name" : "Cube.019",
            "primitives" : [
                {
                    "attributes" : {
                        "POSITION" : 15,
                        "NORMAL" : 16,
                        "TEXCOORD_0" : 17
                    },
                    "indices" : 18,
                    "material" : 0
                }
            ]
        },
        {
            "name" : "Cube.018",
            "primitives" : [
                {
                    "attributes" : {
                        "POSITION" : 19,
                        "NORMAL" : 20,
                        "TEXCOORD_0" : 21
                    },
                    "indices" : 18,
                    "material" : 0
                }
            ]
        },
        {
            "name" : "Cube.017",
            "primitives" : [
                {
                    "attributes" : {
                        "POSITION" : 22,
                        "NORMAL" : 23,
                        "TEXCOORD_0" : 24
                    },
                    "indices" : 25,
                    "material" : 0
                }
            ]
        },
        {
            "name" : "Cube.016",
            "primitives" : [
                {
                    "attributes" : {
                        "POSITION" : 26,
                        "NORMAL" : 27,
                        "TEXCOORD_0" : 28
                    },
                    "indices" : 25,
                    "material" : 0
                }
            ]
        },
        {
            "name" : "Cube.015",
            "primitives" : [
                {
                    "attributes" : {
                        "POSITION" : 29,
                        "NORMAL" : 30,
                        "TEXCOORD_0" : 31
                    },
                    "indices" : 32,
                    "material" : 0
                }
            ]
        },
        {
            "name" : "Cube.014",
            "primitives" : [
                {
                    "attributes" : {
                        "POSITION" : 33,
                        "NORMAL" : 34,
                        "TEXCOORD_0" : 35
                    },
                    "indices" : 32,
                    "material" : 0
                }
            ]
        },
        {
            "name" : "Cube.013",
            "primitives" : [
                {
                    "attributes" : {
                        "POSITION" : 36,
                        "NORMAL" : 37,
                        "TEXCOORD_0" : 38
                    },
                    "indices" : 32,
                    "material" : 0
                }
            ]
        },
        {
            "name" : "Cube.012",
            "primitives" : [
                {
                    "attributes" : {
                        "POSITION" : 39,
                        "NORMAL" : 40,
                        "TEXCOORD_0" : 41
                    },
                    "indices" : 11,
                    "material" : 0
                }
            ]
        }
    ],
    "accessors" : [
        {
            "bufferView" : 0,
            "componentType" : 5126,
            "count" : 40,
            "max" : [
                0.9063941240310669,
                0.10690703988075256,
                1.2511827945709229
            ],
            "min" : [
                -0.9063941240310669,
                0.02572811208665371,
                -1.2511827945709229
            ],
            "type" : "VEC3"
        },
        {
            "bufferView" : 1,
            "componentType" : 5126,
            "count" : 40,
            "type" : "VEC3"
        },
        {
            "bufferView" : 2,
            "componentType" : 5126,
            "count" : 40,
            "type" : "VEC2"
        },
        {
            "bufferView" : 3,
            "componentType" : 5123,
            "count" : 60,
            "type" : "SCALAR"
        },
        {
            "bufferView" : 4,
            "componentType" : 5126,
            "count" : 24,
            "max" : [
                0.9226711988449097,
                0.008616339415311813,
                0.34225061535835266
            ],
            "min" : [
                -0.80849689245224,
                -0.008616339415311813,
                -2.0327701568603516
            ],
            "type" : "VEC3"
        },
        {
            "bufferView" : 5,
            "componentType" : 5126,
            "count" : 24,
            "type" : "VEC3"
        },
        {
            "bufferView" : 6,
            "componentType" : 5126,
            "count" : 24,
            "type" : "VEC2"
        },
        {
            "bufferView" : 7,
            "componentType" : 5123,
            "count" : 36,
            "type" : "SCALAR"
        },
        {
            "bufferView" : 8,
            "componentType" : 5126,
            "count" : 24,
            "max" : [
                0.525324821472168,
                0.011493261903524399,
                0.4870067536830902
            ],
            "min" : [
                -0.6704834699630737,
                -0.011493261903524399,
                -0.36499151587486267
            ],
            "type" : "VEC3"
        },
        {
            "bufferView" : 9,
            "componentType" : 5126,
            "count" : 24,
            "type" : "VEC3"
        },
        {
            "bufferView" : 10,
            "componentType" : 5126,
            "count" : 24,
            "type" : "VEC2"
        },
        {
            "bufferView" : 11,
            "componentType" : 5123,
            "count" : 36,
            "type" : "SCALAR"
        },
        {
            "bufferView" : 12,
            "componentType" : 5126,
            "count" : 24,
            "max" : [
                0.46170204877853394,
                0.011493261903524399,
                0.4728521704673767
            ],
            "min" : [
                -0.6671493649482727,
                -0.011493261903524399,
                -0.321719765663147
            ],
            "type" : "VEC3"
        },
        {
            "bufferView" : 13,
            "componentType" : 5126,
            "count" : 24,
            "type" : "VEC3"
        },
        {
            "bufferView" : 14,
            "componentType" : 5126,
            "count" : 24,
            "type" : "VEC2"
        },
        {
            "bufferView" : 15,
            "componentType" : 5126,
            "count" : 24,
            "max" : [
                0.34943628311157227,
                0.011493261903524399,
                0.38296598196029663
            ],
            "min" : [
                -0.5470654964447021,
                -0.011493261903524399,
                -0.2732224762439728
            ],
            "type" : "VEC3"
        },
        {
            "bufferView" : 16,
            "componentType" : 5126,
            "count" : 24,
            "type" : "VEC3"
        },
        {
            "bufferView" : 17,
            "componentType" : 5126,
            "count" : 24,
            "type" : "VEC2"
        },
        {
            "bufferView" : 18,
            "componentType" : 5123,
            "count" : 36,
            "type" : "SCALAR"
        },
        {
            "bufferView" : 19,
            "componentType" : 5126,
            "count" : 24,
            "max" : [
                0.18025106191635132,
                0.011493261903524399,
                0.2652984857559204
            ],
            "min" : [
                -0.38439273834228516,
                -0.011493265628814697,
                -0.1742384135723114
            ],
            "type" : "VEC3"
        },
        {
            "bufferView" : 20,
            "componentType" : 5126,
            "count" : 24,
            "type" : "VEC3"
        },
        {
            "bufferView" : 21,
            "componentType" : 5126,
            "count" : 24,
            "type" : "VEC2"
        },
        {
            "bufferView" : 22,
            "componentType" : 5126,
            "count" : 24,
            "max" : [
                0.4798972010612488,
                0.011493263766169548,
                0.4346182346343994
            ],
            "min" : [
                -0.582277238368988,
                -0.011493265628814697,
                -0.33203068375587463
            ],
            "type" : "VEC3"
        },
        {
            "bufferView" : 23,
            "componentType" : 5126,
            "count" : 24,
            "type" : "VEC3"
        },
        {
            "bufferView" : 24,
            "componentType" : 5126,
            "count" : 24,
            "type" : "VEC2"
        },
        {
            "bufferView" : 25,
            "componentType" : 5123,
            "count" : 36,
            "type" : "SCALAR"
        },
        {
            "bufferView" : 26,
            "componentType" : 5126,
            "count" : 24,
            "max" : [
                0.3957827389240265,
                0.011493263766169548,
                0.3559625744819641
            ],
            "min" : [
                -0.4665060341358185,
                -0.011493265628814697,
                -0.24907782673835754
            ],
            "type" : "VEC3"
        },
        {
            "bufferView" : 27,
            "componentType" : 5126,
            "count" : 24,
            "type" : "VEC3"
        },
        {
            "bufferView" : 28,
            "componentType" : 5126,
            "count" : 24,
            "type" : "VEC2"
        },
        {
            "bufferView" : 29,
            "componentType" : 5126,
            "count" : 24,
            "max" : [
                0.41351836919784546,
                0.011493265628814697,
                0.11038805544376373
            ],
            "min" : [
                -0.10653358697891235,
                -0.01149326004087925,
                -0.2337246984243393
            ],
            "type" : "VEC3"
        },
        {
            "bufferView" : 30,
            "componentType" : 5126,
            "count" : 24,
            "type" : "VEC3"
        },
        {
            "bufferView" : 31,
            "componentType" : 5126,
            "count" : 24,
            "type" : "VEC2"
        },
        {
            "bufferView" : 32,
            "componentType" : 5123,
            "count" : 36,
            "type" : "SCALAR"
        },
        {
            "bufferView" : 33,
            "componentType" : 5126,
            "count" : 24,
            "max" : [
                0.12758371233940125,
                0.011493265628814697,
                0.10525944083929062
            ],
            "min" : [
                -0.11451846361160278,
                -0.01149326004087925,
                -0.054170578718185425
            ],
            "type" : "VEC3"
        },
        {
            "bufferView" : 34,
            "componentType" : 5126,
            "count" : 24,
            "type" : "VEC3"
        },
        {
            "bufferView" : 35,
            "componentType" : 5126,
            "count" : 24,
            "type" : "VEC2"
        },
        {
            "bufferView" : 36,
            "componentType" : 5126,
            "count" : 24,
            "max" : [
                0.12758371233940125,
                0.011493265628814697,
                0.10525944083929062
            ],
            "min" : [
                -0.11451846361160278,
                -0.01149326004087925,
                -0.054170578718185425
            ],
            "type" : "VEC3"
        },
        {
            "bufferView" : 37,
            "componentType" : 5126,
            "count" : 24,
            "type" : "VEC3"
        },
        {
            "bufferView" : 38,
            "componentType" : 5126,
            "count" : 24,
            "type" : "VEC2"
        },
        {
            "bufferView" : 39,
            "componentType" : 5126,
            "count" : 24,
            "max" : [
                0.534723699092865,
                0.011493261903524399,
                0.4858883023262024
            ],
            "min" : [
                -0.6553988456726074,
                -0.011493261903524399,
                -0.3571797311306
            ],
            "type" : "VEC3"
        },
        {
            "bufferView" : 40,
            "componentType" : 5126,
            "count" : 24,
            "type" : "VEC3"
        },
        {
            "bufferView" : 41,
            "componentType" : 5126,
            "count" : 24,
            "type" : "VEC2"
        }
    ],
    "bufferViews" : [
        {
            "buffer" : 0,
            "byteLength" : 480,
            "byteOffset" : 0
        },
        {
            "buffer" : 0,
            "byteLength" : 480,
            "byteOffset" : 480
        },
        {
            "buffer" : 0,
            "byteLength" : 320,
            "byteOffset" : 960
        },
        {
            "buffer" : 0,
            "byteLength" : 120,
            "byteOffset" : 1280
        },
        {
            "buffer" : 0,
            "byteLength" : 288,
            "byteOffset" : 1400
        },
        {
            "buffer" : 0,
            "byteLength" : 288,
            "byteOffset" : 1688
        },
        {
            "buffer" : 0,
            "byteLength" : 192,
            "byteOffset" : 1976
        },
        {
            "buffer" : 0,
            "byteLength" : 72,
            "byteOffset" : 2168
        },
        {
            "buffer" : 0,
            "byteLength" : 288,
            "byteOffset" : 2240
        },
        {
            "buffer" : 0,
            "byteLength" : 288,
            "byteOffset" : 2528
        },
        {
            "buffer" : 0,
            "byteLength" : 192,
            "byteOffset" : 2816
        },
        {
            "buffer" : 0,
            "byteLength" : 72,
            "byteOffset" : 3008
        },
        {
            "buffer" : 0,
            "byteLength" : 288,
            "byteOffset" : 3080
        },
        {
            "buffer" : 0,
            "byteLength" : 288,
            "byteOffset" : 3368
        },
        {
            "buffer" : 0,
            "byteLength" : 192,
            "byteOffset" : 3656
        },
        {
            "buffer" : 0,
            "byteLength" : 288,
            "byteOffset" : 3848
        },
        {
            "buffer" : 0,
            "byteLength" : 288,
            "byteOffset" : 4136
        },
        {
            "buffer" : 0,
            "byteLength" : 192,
            "byteOffset" : 4424
        },
        {
            "buffer" : 0,
            "byteLength" : 72,
            "byteOffset" : 4616
        },
        {
            "buffer" : 0,
            "byteLength" : 288,
            "byteOffset" : 4688
        },
        {
            "buffer" : 0,
            "byteLength" : 288,
            "byteOffset" : 4976
        },
        {
            "buffer" : 0,
            "byteLength" : 192,
            "byteOffset" : 5264
        },
        {
            "buffer" : 0,
            "byteLength" : 288,
            "byteOffset" : 5456
        },
        {
            "buffer" : 0,
            "byteLength" : 288,
            "byteOffset" : 5744
        },
        {
            "buffer" : 0,
            "byteLength" : 192,
            "byteOffset" : 6032
        },
        {
            "buffer" : 0,
            "byteLength" : 72,
            "byteOffset" : 6224
        },
        {
            "buffer" : 0,
            "byteLength" : 288,
            "byteOffset" : 6296
        },
        {
            "buffer" : 0,
            "byteLength" : 288,
            "byteOffset" : 6584
        },
        {
            "buffer" : 0,
            "byteLength" : 192,
            "byteOffset" : 6872
        },
        {
            "buffer" : 0,
            "byteLength" : 288,
            "byteOffset" : 7064
        },
        {
            "buffer" : 0,
            "byteLength" : 288,
            "byteOffset" : 7352
        },
        {
            "buffer" : 0,
            "byteLength" : 192,
            "byteOffset" : 7640
        },
        {
            "buffer" : 0,
            "byteLength" : 72,
            "byteOffset" : 7832
        },
        {
            "buffer" : 0,
            "byteLength" : 288,
            "byteOffset" : 7904
        },
        {
            "buffer" : 0,
            "byteLength" : 288,
            "byteOffset" : 8192
        },
        {
            "buffer" : 0,
            "byteLength" : 192,
            "byteOffset" : 8480
        },
        {
            "buffer" : 0,
            "byteLength" : 288,
            "byteOffset" : 8672
        },
        {
            "buffer" : 0,
            "byteLength" : 288,
            "byteOffset" : 8960
        },
        {
            "buffer" : 0,
            "byteLength" : 192,
            "byteOffset" : 9248
        },
        {
            "buffer" : 0,
            "byteLength" : 288,
            "byteOffset" : 9440
        },
        {
            "buffer" : 0,
            "byteLength" : 288,
            "byteOffset" : 9728
        },
        {
            "buffer" : 0,
            "byteLength" : 192,
            "byteOffset" : 10016
        }
    ],
    "buffers" : [
        {
            "byteLength" : 10208,
            "uri" : "data:application/octet-stream;base64,"
        }
    ]
}
