{
    "asset" : {
        "generator" : "Khronos glTF Blender I/O v1.6.16",
        "version" : "2.0"
    },
    "scene" : 0,
    "scenes" : [
        {
            "name" : "Scene",
            "nodes" : [
                0,
                1,
                2,
                3,
                4,
                5,
                6,
                7,
                8,
                9,
                10,
                11,
                12
            ]
        }
    ],
    "nodes" : [
        {
            "name" : "Empty.001",
            "translation" : [
                0,
                0.061229053884744644,
                -1.9328904151916504
            ]
        },
        {
            "mesh" : 0,
            "name" : "Cube",
            "translation" : [
                -0.03465473651885986,
                0.018398262560367584,
                -0.14699715375900269
            ]
        },
        {
            "name" : "Point",
            "translation" : [
                -1.2863415479660034,
                1.7464255094528198,
                -0.20209479331970215
            ]
        },
        {
            "mesh" : 1,
            "name" : "Cube.001",
            "translation" : [
                -0.012440860271453857,
                0.06482675671577454,
                -0.328987181186676
            ]
        },
        {
            "mesh" : 2,
            "name" : "Cube.002",
            "translation" : [
                0.08392806351184845,
                0.06482675671577454,
                -0.183262899518013
            ]
        },
        {
            "mesh" : 3,
            "name" : "Cube.003",
            "translation" : [
                0.21775086224079132,
                0.06482675671577454,
                -0.027917221188545227
            ]
        },
        {
            "mesh" : 4,
            "name" : "Cube.004",
            "translation" : [
                0.3030848205089569,
                0.06482674926519394,
                0.1401083767414093
            ]
        },
        {
            "mesh" : 5,
            "name" : "Cube.005",
            "translation" : [
                0.4109479784965515,
                0.06482674926519394,
                0.28638216853141785
            ]
        },
        {
            "mesh" : 6,
            "name" : "Cube.006",
            "translation" : [
                -0.11932603269815445,
                0.06482675671577454,
                -0.44048893451690674
            ]
        },
        {
            "mesh" : 7,
            "name" : "Cube.007",
            "translation" : [
                -0.22524547576904297,
                0.06482675671577454,
                -0.5705423355102539
            ]
        },
        {
            "mesh" : 8,
            "name" : "Cube.008",
            "translation" : [
                -0.5049456357955933,
                0.06482675671577454,
                -0.5720049142837524
            ]
        },
        {
            "mesh" : 9,
            "name" : "Cube.009",
            "translation" : [
                -0.40538763999938965,
                0.06482675671577454,
                -0.7423014640808105
            ]
        },
        {
            "mesh" : 10,
            "name" : "Cube.010",
            "rotation" : [
                0,
                0.9998173117637634,
                0,
                -0.01911337487399578
            ],
            "translation" : [
                0.4192635715007782,
                0.06482675671577454,
                0.4734834134578705
            ]
        }
    ],
    "materials" : [
        {
            "doubleSided" : true,
            "name" : "Material.001",
            "pbrMetallicRoughness" : {}
        },
        {
            "doubleSided" : true,
            "name" : "Material.002",
            "pbrMetallicRoughness" : {}
        }
    ],
    "meshes" : [
        {
            "name" : "Cube.001",
            "primitives" : [
                {
                    "attributes" : {
                        "POSITION" : 0,
                        "NORMAL" : 1,
                        "TEXCOORD_0" : 2
                    },
                    "indices" : 3,
                    "material" : 0
                }
            ]
        },
        {
            "name" : "Cube.002",
            "primitives" : [
                {
                    "attributes" : {
                        "POSITION" : 4,
                        "NORMAL" : 5,
                        "TEXCOORD_0" : 6
                    },
                    "indices" : 7,
                    "material" : 1
                }
            ]
        },
        {
            "name" : "Cube.003",
            "primitives" : [
                {
                    "attributes" : {
                        "POSITION" : 8,
                        "NORMAL" : 9,
                        "TEXCOORD_0" : 10
                    },
                    "indices" : 7,
                    "material" : 1
                }
            ]
        },
        {
            "name" : "Cube.004",
            "primitives" : [
                {
                    "attributes" : {
                        "POSITION" : 11,
                        "NORMAL" : 12,
                        "TEXCOORD_0" : 13
                    },
                    "indices" : 7,
                    "material" : 1
                }
            ]
        },
        {
            "name" : "Cube.005",
            "primitives" : [
                {
                    "attributes" : {
                        "POSITION" : 14,
                        "NORMAL" : 15,
                        "TEXCOORD_0" : 16
                    },
                    "indices" : 17,
                    "material" : 1
                }
            ]
        },
        {
            "name" : "Cube.006",
            "primitives" : [
                {
                    "attributes" : {
                        "POSITION" : 18,
                        "NORMAL" : 19,
                        "TEXCOORD_0" : 20
                    },
                    "indices" : 17,
                    "material" : 1
                }
            ]
        },
        {
            "name" : "Cube.007",
            "primitives" : [
                {
                    "attributes" : {
                        "POSITION" : 21,
                        "NORMAL" : 22,
                        "TEXCOORD_0" : 23
                    },
                    "indices" : 24,
                    "material" : 1
                }
            ]
        },
        {
            "name" : "Cube.008",
            "primitives" : [
                {
                    "attributes" : {
                        "POSITION" : 25,
                        "NORMAL" : 26,
                        "TEXCOORD_0" : 27
                    },
                    "indices" : 24,
                    "material" : 1
                }
            ]
        },
        {
            "name" : "Cube.009",
            "primitives" : [
                {
                    "attributes" : {
                        "POSITION" : 28,
                        "NORMAL" : 29,
                        "TEXCOORD_0" : 30
                    },
                    "indices" : 31,
                    "material" : 1
                }
            ]
        },
        {
            "name" : "Cube.010",
            "primitives" : [
                {
                    "attributes" : {
                        "POSITION" : 32,
                        "NORMAL" : 33,
                        "TEXCOORD_0" : 34
                    },
                    "indices" : 31,
                    "material" : 1
                }
            ]
        },
        {
            "name" : "Cube.011",
            "primitives" : [
                {
                    "attributes" : {
                        "POSITION" : 35,
                        "NORMAL" : 36,
                        "TEXCOORD_0" : 37
                    },
                    "indices" : 31,
                    "material" : 1
                }
            ]
        }
    ],
    "accessors" : [
        {
            "bufferView" : 0,
            "componentType" : 5126,
            "count" : 24,
            "max" : [
                0.9063941240310669,
                0.0349353551864624,
                1.2511827945709229
            ],
            "min" : [
                -0.9063941240310669,
                0.02572811208665371,
                -1.2511827945709229
            ],
            "type" : "VEC3"
        },
        {
            "bufferView" : 1,
            "componentType" : 5126,
            "count" : 24,
            "type" : "VEC3"
        },
        {
            "bufferView" : 2,
            "componentType" : 5126,
            "count" : 24,
            "type" : "VEC2"
        },
        {
            "bufferView" : 3,
            "componentType" : 5123,
            "count" : 36,
            "type" : "SCALAR"
        },
        {
            "bufferView" : 4,
            "componentType" : 5126,
            "count" : 24,
            "max" : [
                0.534723699092865,
                0.011493261903524399,
                0.4858883023262024
            ],
            "min" : [
                -0.6553988456726074,
                -0.011493261903524399,
                -0.3571797311306
            ],
            "type" : "VEC3"
        },
        {
            "bufferView" : 5,
            "componentType" : 5126,
            "count" : 24,
            "type" : "VEC3"
        },
        {
            "bufferView" : 6,
            "componentType" : 5126,
            "count" : 24,
            "type" : "VEC2"
        },
        {
            "bufferView" : 7,
            "componentType" : 5123,
            "count" : 36,
            "type" : "SCALAR"
        },
        {
            "bufferView" : 8,
            "componentType" : 5126,
            "count" : 24,
            "max" : [
                0.525324821472168,
                0.011493261903524399,
                0.4870067536830902
            ],
            "min" : [
                -0.6704834699630737,
                -0.011493261903524399,
                -0.36499151587486267
            ],
            "type" : "VEC3"
        },
        {
            "bufferView" : 9,
            "componentType" : 5126,
            "count" : 24,
            "type" : "VEC3"
        },
        {
            "bufferView" : 10,
            "componentType" : 5126,
            "count" : 24,
            "type" : "VEC2"
        },
        {
            "bufferView" : 11,
            "componentType" : 5126,
            "count" : 24,
            "max" : [
                0.46170204877853394,
                0.011493261903524399,
                0.4728521704673767
            ],
            "min" : [
                -0.6671493649482727,
                -0.011493261903524399,
                -0.321719765663147
            ],
            "type" : "VEC3"
        },
        {
            "bufferView" : 12,
            "componentType" : 5126,
            "count" : 24,
            "type" : "VEC3"
        },
        {
            "bufferView" : 13,
            "componentType" : 5126,
            "count" : 24,
            "type" : "VEC2"
        },
        {
            "bufferView" : 14,
            "componentType" : 5126,
            "count" : 24,
            "max" : [
                0.34943628311157227,
                0.011493261903524399,
                0.38296598196029663
            ],
            "min" : [
                -0.5470654964447021,
                -0.011493261903524399,
                -0.2732224762439728
            ],
            "type" : "VEC3"
        },
        {
            "bufferView" : 15,
            "componentType" : 5126,
            "count" : 24,
            "type" : "VEC3"
        },
        {
            "bufferView" : 16,
            "componentType" : 5126,
            "count" : 24,
            "type" : "VEC2"
        },
        {
            "bufferView" : 17,
            "componentType" : 5123,
            "count" : 36,
            "type" : "SCALAR"
        },
        {
            "bufferView" : 18,
            "componentType" : 5126,
            "count" : 24,
            "max" : [
                0.18025106191635132,
                0.011493261903524399,
                0.2652984857559204
            ],
            "min" : [
                -0.38439273834228516,
                -0.011493265628814697,
                -0.1742384135723114
            ],
            "type" : "VEC3"
        },
        {
            "bufferView" : 19,
            "componentType" : 5126,
            "count" : 24,
            "type" : "VEC3"
        },
        {
            "bufferView" : 20,
            "componentType" : 5126,
            "count" : 24,
            "type" : "VEC2"
        },
        {
            "bufferView" : 21,
            "componentType" : 5126,
            "count" : 24,
            "max" : [
                0.4798972010612488,
                0.011493263766169548,
                0.4346182346343994
            ],
            "min" : [
                -0.582277238368988,
                -0.011493265628814697,
                -0.33203068375587463
            ],
            "type" : "VEC3"
        },
        {
            "bufferView" : 22,
            "componentType" : 5126,
            "count" : 24,
            "type" : "VEC3"
        },
        {
            "bufferView" : 23,
            "componentType" : 5126,
            "count" : 24,
            "type" : "VEC2"
        },
        {
            "bufferView" : 24,
            "componentType" : 5123,
            "count" : 36,
            "type" : "SCALAR"
        },
        {
            "bufferView" : 25,
            "componentType" : 5126,
            "count" : 24,
            "max" : [
                0.3957827389240265,
                0.011493263766169548,
                0.3559625744819641
            ],
            "min" : [
                -0.4665060341358185,
                -0.011493265628814697,
                -0.24907782673835754
            ],
            "type" : "VEC3"
        },
        {
            "bufferView" : 26,
            "componentType" : 5126,
            "count" : 24,
            "type" : "VEC3"
        },
        {
            "bufferView" : 27,
            "componentType" : 5126,
            "count" : 24,
            "type" : "VEC2"
        },
        {
            "bufferView" : 28,
            "componentType" : 5126,
            "count" : 24,
            "max" : [
                0.41351836919784546,
                0.011493265628814697,
                0.11038805544376373
            ],
            "min" : [
                -0.10653358697891235,
                -0.01149326004087925,
                -0.2337246984243393
            ],
            "type" : "VEC3"
        },
        {
            "bufferView" : 29,
            "componentType" : 5126,
            "count" : 24,
            "type" : "VEC3"
        },
        {
            "bufferView" : 30,
            "componentType" : 5126,
            "count" : 24,
            "type" : "VEC2"
        },
        {
            "bufferView" : 31,
            "componentType" : 5123,
            "count" : 36,
            "type" : "SCALAR"
        },
        {
            "bufferView" : 32,
            "componentType" : 5126,
            "count" : 24,
            "max" : [
                0.12758371233940125,
                0.011493265628814697,
                0.10525944083929062
            ],
            "min" : [
                -0.11451846361160278,
                -0.01149326004087925,
                -0.054170578718185425
            ],
            "type" : "VEC3"
        },
        {
            "bufferView" : 33,
            "componentType" : 5126,
            "count" : 24,
            "type" : "VEC3"
        },
        {
            "bufferView" : 34,
            "componentType" : 5126,
            "count" : 24,
            "type" : "VEC2"
        },
        {
            "bufferView" : 35,
            "componentType" : 5126,
            "count" : 24,
            "max" : [
                0.12758371233940125,
                0.011493265628814697,
                0.10525944083929062
            ],
            "min" : [
                -0.11451846361160278,
                -0.01149326004087925,
                -0.054170578718185425
            ],
            "type" : "VEC3"
        },
        {
            "bufferView" : 36,
            "componentType" : 5126,
            "count" : 24,
            "type" : "VEC3"
        },
        {
            "bufferView" : 37,
            "componentType" : 5126,
            "count" : 24,
            "type" : "VEC2"
        }
    ],
    "bufferViews" : [
        {
            "buffer" : 0,
            "byteLength" : 288,
            "byteOffset" : 0
        },
        {
            "buffer" : 0,
            "byteLength" : 288,
            "byteOffset" : 288
        },
        {
            "buffer" : 0,
            "byteLength" : 192,
            "byteOffset" : 576
        },
        {
            "buffer" : 0,
            "byteLength" : 72,
            "byteOffset" : 768
        },
        {
            "buffer" : 0,
            "byteLength" : 288,
            "byteOffset" : 840
        },
        {
            "buffer" : 0,
            "byteLength" : 288,
            "byteOffset" : 1128
        },
        {
            "buffer" : 0,
            "byteLength" : 192,
            "byteOffset" : 1416
        },
        {
            "buffer" : 0,
            "byteLength" : 72,
            "byteOffset" : 1608
        },
        {
            "buffer" : 0,
            "byteLength" : 288,
            "byteOffset" : 1680
        },
        {
            "buffer" : 0,
            "byteLength" : 288,
            "byteOffset" : 1968
        },
        {
            "buffer" : 0,
            "byteLength" : 192,
            "byteOffset" : 2256
        },
        {
            "buffer" : 0,
            "byteLength" : 288,
            "byteOffset" : 2448
        },
        {
            "buffer" : 0,
            "byteLength" : 288,
            "byteOffset" : 2736
        },
        {
            "buffer" : 0,
            "byteLength" : 192,
            "byteOffset" : 3024
        },
        {
            "buffer" : 0,
            "byteLength" : 288,
            "byteOffset" : 3216
        },
        {
            "buffer" : 0,
            "byteLength" : 288,
            "byteOffset" : 3504
        },
        {
            "buffer" : 0,
            "byteLength" : 192,
            "byteOffset" : 3792
        },
        {
            "buffer" : 0,
            "byteLength" : 72,
            "byteOffset" : 3984
        },
        {
            "buffer" : 0,
            "byteLength" : 288,
            "byteOffset" : 4056
        },
        {
            "buffer" : 0,
            "byteLength" : 288,
            "byteOffset" : 4344
        },
        {
            "buffer" : 0,
            "byteLength" : 192,
            "byteOffset" : 4632
        },
        {
            "buffer" : 0,
            "byteLength" : 288,
            "byteOffset" : 4824
        },
        {
            "buffer" : 0,
            "byteLength" : 288,
            "byteOffset" : 5112
        },
        {
            "buffer" : 0,
            "byteLength" : 192,
            "byteOffset" : 5400
        },
        {
            "buffer" : 0,
            "byteLength" : 72,
            "byteOffset" : 5592
        },
        {
            "buffer" : 0,
            "byteLength" : 288,
            "byteOffset" : 5664
        },
        {
            "buffer" : 0,
            "byteLength" : 288,
            "byteOffset" : 5952
        },
        {
            "buffer" : 0,
            "byteLength" : 192,
            "byteOffset" : 6240
        },
        {
            "buffer" : 0,
            "byteLength" : 288,
            "byteOffset" : 6432
        },
        {
            "buffer" : 0,
            "byteLength" : 288,
            "byteOffset" : 6720
        },
        {
            "buffer" : 0,
            "byteLength" : 192,
            "byteOffset" : 7008
        },
        {
            "buffer" : 0,
            "byteLength" : 72,
            "byteOffset" : 7200
        },
        {
            "buffer" : 0,
            "byteLength" : 288,
            "byteOffset" : 7272
        },
        {
            "buffer" : 0,
            "byteLength" : 288,
            "byteOffset" : 7560
        },
        {
            "buffer" : 0,
            "byteLength" : 192,
            "byteOffset" : 7848
        },
        {
            "buffer" : 0,
            "byteLength" : 288,
            "byteOffset" : 8040
        },
        {
            "buffer" : 0,
            "byteLength" : 288,
            "byteOffset" : 8328
        },
        {
            "buffer" : 0,
            "byteLength" : 192,
            "byteOffset" : 8616
        }
    ],
    "buffers" : [
        {
            "byteLength" : 8808,
            "uri" : "data:application/octet-stream;base64,"
        }
    ]
}
