{"asset":{"generator":"Khronos glTF Spline I/O v0.0.1","version":"2.0"},"scenes":[{"nodes":[0]}],"nodes":[{"name":"","children":[1,2],"matrix":[0.01,0,0,0,0,0.01,0,0,0,0,0.01,0,0,0,0,1]},{"name":"","camera":0,"translation":[-617.7511997487779,307.7776297392828,775.460263667524],"rotation":[-0.12000971728533157,-0.3264327996957446,-0.0418252578589179,0.9366375728342995]},{"name":"Text","matrix":[1,0,0,0,0,1,0,0,0,0,1,0,-37.744809683157655,57.5,-24.226469885983533,1],"mesh":0}],"cameras":[{"type":"orthographic","orthographic":{"xmag":1680,"ymag":920,"zfar":100000,"znear":-100000}}],"meshes":[{"primitives":[{"attributes":{"POSITION":1,"NORMAL":2,"TEXCOORD_0":3},"indices":0}]}],"buffers":[{"uri":"data:application/octet-stream;base64,","byteLength":287832}],"bufferViews":[{"buffer":0,"byteOffset":0,"byteLength":53976,"target":34963},{"buffer":0,"byteOffset":53976,"byteLength":87696,"target":34962},{"buffer":0,"byteOffset":141672,"byteLength":87696,"target":34962},{"buffer":0,"byteOffset":229368,"byteLength":58464,"target":34962}],"accessors":[{"bufferView":0,"byteOffset":0,"componentType":5123,"count":26988,"type":"SCALAR","min":[0],"max":[7307]},{"bufferView":1,"byteOffset":0,"componentType":5126,"count":7308,"type":"VEC3","min":[-289.79998779296875,-80.70397186279297,0],"max":[285.79998779296875,97.89602661132812,11.547060012817383]},{"bufferView":2,"byteOffset":0,"componentType":5126,"count":7308,"type":"VEC3","min":[-1,-1,-1],"max":[1,1,1]},{"bufferView":3,"byteOffset":0,"componentType":5126,"count":7308,"type":"VEC2","min":[0,0],"max":[1,1]}],"extensions":{"KHR_lights_punctual":{"lights":[]}},"extensionsUsed":["KHR_lights_punctual"]}