{"asset":{"generator":"Khronos glTF Spline I/O v0.0.1","version":"2.0"},"scenes":[{"nodes":[0]}],"nodes":[{"name":"","children":[1,2,3,8,13,14],"matrix":[0.01,0,0,0,0,0.01,0,0,0,0,0.01,0,0,0,0,1]},{"name":"","camera":0,"translation":[-71.87319058847591,-27.424117257626655,1122.7610761146352],"rotation":[0.004671220597115795,-0.07773515649136345,0.00036419941542427674,0.9969630346718888]},{"name":"Titel 2","matrix":[1,0,0,0,0,1,0,0,0,0,1,0,1,-48.4806861613621,6.83470467699922,1],"mesh":0},{"name":"Group 2","matrix":[0.9999333328008954,0,0,0,0,0.36896041067863533,0,0,0,0,0.9999999993471069,0,0,-0.0578300445479556,2.8347046672058234,0.9999999999999999],"children":[4,5,6,7]},{"name":"Rectangle","matrix":[1,0,0,0,0,1,0,0,0,0,1,0,9.15581980268368,187.549126362707,4.440892098500626e-16,1],"mesh":1},{"name":"Rectangle 2","matrix":[1,0,0,0,0,1,0,0,0,0,1,0,236.3526795810703,-95.01627672529845,-1.5620539517192764,1],"mesh":2},{"name":"Rectangle 3","matrix":[1,0,0,0,0,1,0,0,0,0,1,0,-11.210452431717549,-438.3166711923905,-1.3322676295501882e-15,1],"mesh":3},{"name":"Rectangle 4","matrix":[1,0,0,0,0,1,0,0,0,0,1,0,-239.0686506688395,-150.13942153179823,-1.087063800556204,1],"mesh":4},{"name":"Group","matrix":[0.9999333328008954,0,0,0,0,0.36896041067863533,0,0,0,0,0.9999999993471069,0,-0.3465227663846128,-0.0578300445479556,2.8347046672058234,0.9999999999999999],"children":[9,10,11,12]},{"name":"Rectangle","matrix":[1,0,0,0,0,1,0,0,0,0,1,0,9.15581980268368,187.549126362707,4.440892098500626e-16,1],"mesh":5},{"name":"Rectangle 2","matrix":[1,0,0,0,0,1,0,0,0,0,1,0,236.35267958107028,30.19205188808584,0,1],"mesh":6},{"name":"Rectangle 3","matrix":[1,0,0,0,0,1,0,0,0,0,1,0,-11.210452431717549,-186.91110192987117,-1.3322676295501882e-15,1],"mesh":7},{"name":"Rectangle 4","matrix":[1,0,0,0,0,1,0,0,0,0,1,0,-239.0802667935289,-27.11734749422349,-1.0870638004451563,1],"mesh":8},{"name":"Titel","matrix":[1,0,0,0,0,1,0,0,0,0,1,0,62.244602663039885,0,2.8347046769992197,1],"mesh":9},{"name":"01","matrix":[1,0,0,0,0,1,0,0,0,0,1,0,-141.1332258856962,-11.72329755681676,2.8347046769992197,1],"mesh":10}],"cameras":[{"type":"orthographic","orthographic":{"xmag":1512,"ymag":732,"zfar":100000,"znear":-100000}}],"meshes":[{"primitives":[{"attributes":{"POSITION":1,"NORMAL":2,"TEXCOORD_0":3},"indices":0}]},{"primitives":[{"attributes":{"POSITION":5,"NORMAL":6,"TEXCOORD_0":7},"indices":4}]},{"primitives":[{"attributes":{"POSITION":9,"NORMAL":10,"TEXCOORD_0":11},"indices":8}]},{"primitives":[{"attributes":{"POSITION":13,"NORMAL":14,"TEXCOORD_0":15},"indices":12}]},{"primitives":[{"attributes":{"POSITION":17,"NORMAL":18,"TEXCOORD_0":19},"indices":16}]},{"primitives":[{"attributes":{"POSITION":21,"NORMAL":22,"TEXCOORD_0":23},"indices":20}]},{"primitives":[{"attributes":{"POSITION":25,"NORMAL":26,"TEXCOORD_0":27},"indices":24}]},{"primitives":[{"attributes":{"POSITION":29,"NORMAL":30,"TEXCOORD_0":31},"indices":28}]},{"primitives":[{"attributes":{"POSITION":33,"NORMAL":34,"TEXCOORD_0":35},"indices":32}]},{"primitives":[{"attributes":{"POSITION":37,"NORMAL":38,"TEXCOORD_0":39},"indices":36}]},{"primitives":[{"attributes":{"POSITION":41,"NORMAL":42,"TEXCOORD_0":43},"indices":40}]}],"buffers":[{"uri":"data:application/octet-stream;base64,","byteLength":474312},{"uri":"data:application/octet-stream;base64,","byteLength":2448},{"uri":"data:application/octet-stream;base64,","byteLength":2448},{"uri":"data:application/octet-stream;base64,","byteLength":2448},{"uri":"data:application/octet-stream;base64,","byteLength":2448},{"uri":"data:application/octet-stream;base64,","byteLength":2448},{"uri":"data:application/octet-stream;base64,","byteLength":2448},{"uri":"data:application/octet-stream;base64,","byteLength":2448},{"uri":"data:application/octet-stream;base64,","byteLength":2448},{"uri":"data:application/octet-stream;base64,","byteLength":115068},{"uri":"data:application/octet-stream;base64,","byteLength":18252}],"bufferViews":[{"buffer":0,"byteOffset":0,"byteLength":75366,"target":34963},{"buffer":0,"byteOffset":75368,"byteLength":149604,"target":34962},{"buffer":0,"byteOffset":224972,"byteLength":149604,"target":34962},{"buffer":0,"byteOffset":374576,"byteLength":99736,"target":34962},{"buffer":1,"byteOffset":0,"byteLength":144,"target":34963},{"buffer":1,"byteOffset":144,"byteLength":768,"target":34962},{"buffer":1,"byteOffset":912,"byteLength":768,"target":34962},{"buffer":1,"byteOffset":1680,"byteLength":768,"target":34962},{"buffer":2,"byteOffset":0,"byteLength":144,"target":34963},{"buffer":2,"byteOffset":144,"byteLength":768,"target":34962},{"buffer":2,"byteOffset":912,"byteLength":768,"target":34962},{"buffer":2,"byteOffset":1680,"byteLength":768,"target":34962},{"buffer":3,"byteOffset":0,"byteLength":144,"target":34963},{"buffer":3,"byteOffset":144,"byteLength":768,"target":34962},{"buffer":3,"byteOffset":912,"byteLength":768,"target":34962},{"buffer":3,"byteOffset":1680,"byteLength":768,"target":34962},{"buffer":4,"byteOffset":0,"byteLength":144,"target":34963},{"buffer":4,"byteOffset":144,"byteLength":768,"target":34962},{"buffer":4,"byteOffset":912,"byteLength":768,"target":34962},{"buffer":4,"byteOffset":1680,"byteLength":768,"target":34962},{"buffer":5,"byteOffset":0,"byteLength":144,"target":34963},{"buffer":5,"byteOffset":144,"byteLength":768,"target":34962},{"buffer":5,"byteOffset":912,"byteLength":768,"target":34962},{"buffer":5,"byteOffset":1680,"byteLength":768,"target":34962},{"buffer":6,"byteOffset":0,"byteLength":144,"target":34963},{"buffer":6,"byteOffset":144,"byteLength":768,"target":34962},{"buffer":6,"byteOffset":912,"byteLength":768,"target":34962},{"buffer":6,"byteOffset":1680,"byteLength":768,"target":34962},{"buffer":7,"byteOffset":0,"byteLength":144,"target":34963},{"buffer":7,"byteOffset":144,"byteLength":768,"target":34962},{"buffer":7,"byteOffset":912,"byteLength":768,"target":34962},{"buffer":7,"byteOffset":1680,"byteLength":768,"target":34962},{"buffer":8,"byteOffset":0,"byteLength":144,"target":34963},{"buffer":8,"byteOffset":144,"byteLength":768,"target":34962},{"buffer":8,"byteOffset":912,"byteLength":768,"target":34962},{"buffer":8,"byteOffset":1680,"byteLength":768,"target":34962},{"buffer":9,"byteOffset":0,"byteLength":18396,"target":34963},{"buffer":9,"byteOffset":18396,"byteLength":36252,"target":34962},{"buffer":9,"byteOffset":54648,"byteLength":36252,"target":34962},{"buffer":9,"byteOffset":90900,"byteLength":24168,"target":34962},{"buffer":10,"byteOffset":0,"byteLength":2892,"target":34963},{"buffer":10,"byteOffset":2892,"byteLength":5760,"target":34962},{"buffer":10,"byteOffset":8652,"byteLength":5760,"target":34962},{"buffer":10,"byteOffset":14412,"byteLength":3840,"target":34962}],"accessors":[{"bufferView":0,"byteOffset":0,"componentType":5123,"count":37683,"type":"SCALAR","min":[0],"max":[12466]},{"bufferView":1,"byteOffset":0,"componentType":5126,"count":12467,"type":"VEC3","min":[-148.35549926757812,-63.59133529663086,0],"max":[115.90851593017578,54.9926643371582,0]},{"bufferView":2,"byteOffset":0,"componentType":5126,"count":12467,"type":"VEC3","min":[0,0,1],"max":[0,0,1]},{"bufferView":3,"byteOffset":0,"componentType":5126,"count":12467,"type":"VEC2","min":[0,0],"max":[1,1]},{"bufferView":4,"byteOffset":0,"componentType":5125,"count":36,"type":"SCALAR","min":[0],"max":[23]},{"bufferView":5,"byteOffset":0,"componentType":5126,"count":24,"type":"VEC3","min":[-249.9047088623047,-5.6489787101745605,0],"max":[249.9047088623047,5.6489787101745605,4]},{"bufferView":6,"byteOffset":0,"componentType":5126,"count":24,"type":"VEC3","min":[-1,-1,-1],"max":[1,1,1]},{"bufferView":7,"byteOffset":0,"componentType":5126,"count":24,"type":"VEC2","min":[0,0],"max":[1,1]},{"bufferView":8,"byteOffset":0,"componentType":5125,"count":36,"type":"SCALAR","min":[0],"max":[23]},{"bufferView":9,"byteOffset":0,"componentType":5126,"count":24,"type":"VEC3","min":[-2,-345.84039306640625,0],"max":[2,345.84039306640625,1.562053918838501]},{"bufferView":10,"byteOffset":0,"componentType":5126,"count":24,"type":"VEC3","min":[-1,-1,-1],"max":[1,1,1]},{"bufferView":11,"byteOffset":0,"componentType":5126,"count":24,"type":"VEC2","min":[0,0],"max":[1,1]},{"bufferView":12,"byteOffset":0,"componentType":5125,"count":36,"type":"SCALAR","min":[0],"max":[23]},{"bufferView":13,"byteOffset":0,"componentType":5126,"count":24,"type":"VEC3","min":[-249.0619659423828,-5.3742780685424805,0],"max":[249.0619659423828,5.3742780685424805,3.4313457012176514]},{"bufferView":14,"byteOffset":0,"componentType":5126,"count":24,"type":"VEC3","min":[-1,-1,-1],"max":[1,1,1]},{"bufferView":15,"byteOffset":0,"componentType":5126,"count":24,"type":"VEC2","min":[0,0],"max":[1,1]},{"bufferView":16,"byteOffset":0,"componentType":5125,"count":36,"type":"SCALAR","min":[0],"max":[23]},{"bufferView":17,"byteOffset":0,"componentType":5126,"count":24,"type":"VEC3","min":[-1.9883838891983032,-340.5792236328125,0],"max":[1.9883838891983032,340.5792236328125,1.0833041667938232]},{"bufferView":18,"byteOffset":0,"componentType":5126,"count":24,"type":"VEC3","min":[-1,-1,-1],"max":[1,1,1]},{"bufferView":19,"byteOffset":0,"componentType":5126,"count":24,"type":"VEC2","min":[0,0],"max":[1,1]},{"bufferView":20,"byteOffset":0,"componentType":5125,"count":36,"type":"SCALAR","min":[0],"max":[23]},{"bufferView":21,"byteOffset":0,"componentType":5126,"count":24,"type":"VEC3","min":[-249.9047088623047,-5.6489787101745605,0],"max":[249.9047088623047,5.6489787101745605,4]},{"bufferView":22,"byteOffset":0,"componentType":5126,"count":24,"type":"VEC3","min":[-1,-1,-1],"max":[1,1,1]},{"bufferView":23,"byteOffset":0,"componentType":5126,"count":24,"type":"VEC2","min":[0,0],"max":[1,1]},{"bufferView":24,"byteOffset":0,"componentType":5125,"count":36,"type":"SCALAR","min":[0],"max":[23]},{"bufferView":25,"byteOffset":0,"componentType":5126,"count":24,"type":"VEC3","min":[-2,-220.63204956054688,0],"max":[2,220.63204956054688,4]},{"bufferView":26,"byteOffset":0,"componentType":5126,"count":24,"type":"VEC3","min":[-1,-1,-1],"max":[1,1,1]},{"bufferView":27,"byteOffset":0,"componentType":5126,"count":24,"type":"VEC2","min":[0,0],"max":[1,1]},{"bufferView":28,"byteOffset":0,"componentType":5125,"count":36,"type":"SCALAR","min":[0],"max":[23]},{"bufferView":29,"byteOffset":0,"componentType":5126,"count":24,"type":"VEC3","min":[-249.0619659423828,-5.3742780685424805,0],"max":[249.0619659423828,5.3742780685424805,3.4313457012176514]},{"bufferView":30,"byteOffset":0,"componentType":5126,"count":24,"type":"VEC3","min":[-1,-1,-1],"max":[1,1,1]},{"bufferView":31,"byteOffset":0,"componentType":5126,"count":24,"type":"VEC2","min":[0,0],"max":[1,1]},{"bufferView":32,"byteOffset":0,"componentType":5125,"count":36,"type":"SCALAR","min":[0],"max":[23]},{"bufferView":33,"byteOffset":0,"componentType":5126,"count":24,"type":"VEC3","min":[-2,-217.55712890625,0],"max":[2,217.55712890625,1.0870637893676758]},{"bufferView":34,"byteOffset":0,"componentType":5126,"count":24,"type":"VEC3","min":[-1,-1,-1],"max":[1,1,1]},{"bufferView":35,"byteOffset":0,"componentType":5126,"count":24,"type":"VEC2","min":[0,0],"max":[1,1]},{"bufferView":36,"byteOffset":0,"componentType":5123,"count":9198,"type":"SCALAR","min":[0],"max":[3020]},{"bufferView":37,"byteOffset":0,"componentType":5126,"count":3021,"type":"VEC3","min":[-132.12159729003906,-31.15302276611328,0],"max":[118.66240692138672,28.34697723388672,0]},{"bufferView":38,"byteOffset":0,"componentType":5126,"count":3021,"type":"VEC3","min":[0,0,1],"max":[0,0,1]},{"bufferView":39,"byteOffset":0,"componentType":5126,"count":3021,"type":"VEC2","min":[0,0],"max":[1,1]},{"bufferView":40,"byteOffset":0,"componentType":5123,"count":1446,"type":"SCALAR","min":[0],"max":[479]},{"bufferView":41,"byteOffset":0,"componentType":5126,"count":480,"type":"VEC3","min":[-45.34600067138672,-20.631126403808594,0],"max":[46.493995666503906,37.58887481689453,0]},{"bufferView":42,"byteOffset":0,"componentType":5126,"count":480,"type":"VEC3","min":[0,0,1],"max":[0,0,1]},{"bufferView":43,"byteOffset":0,"componentType":5126,"count":480,"type":"VEC2","min":[0,0],"max":[1,1]}],"extensions":{"KHR_lights_punctual":{"lights":[]}},"extensionsUsed":["KHR_lights_punctual"]}