{"asset":{"generator":"Khronos glTF Spline I/O v0.0.1","version":"2.0"},"scenes":[{"nodes":[0]}],"nodes":[{"name":"","children":[1,2],"matrix":[0.01,0,0,0,0,0.01,0,0,0,0,0.01,0,0,0,0,1]},{"name":"","camera":0,"translation":[-759.2363425308606,258.86496646027723,679.4730443129508],"rotation":[-0.12000971728533158,-0.32643279969574446,-0.041825257858917886,0.9366375728342995]},{"name":"Text","matrix":[1,0,0,0,0,1,0,0,0,0,1,0,-240.76331825281517,-4.3949648685484135,-26.740437696786103,1],"mesh":0}],"cameras":[{"type":"orthographic","orthographic":{"xmag":1680,"ymag":920,"zfar":100000,"znear":-100000}}],"meshes":[{"primitives":[{"attributes":{"POSITION":1,"NORMAL":2,"TEXCOORD_0":3},"indices":0}]}],"buffers":[{"uri":"data:application/octet-stream;base64,","byteLength":284412}],"bufferViews":[{"buffer":0,"byteOffset":0,"byteLength":53436,"target":34963},{"buffer":0,"byteOffset":53436,"byteLength":86616,"target":34962},{"buffer":0,"byteOffset":140052,"byteLength":86616,"target":34962},{"buffer":0,"byteOffset":226668,"byteLength":57744,"target":34962}],"accessors":[{"bufferView":0,"byteOffset":0,"componentType":5123,"count":26718,"type":"SCALAR","min":[0],"max":[7217]},{"bufferView":1,"byteOffset":0,"componentType":5126,"count":7218,"type":"VEC3","min":[-104.3280029296875,-28.601011276245117,0],"max":[102.88800811767578,35.69498825073242,6.519124507904053]},{"bufferView":2,"byteOffset":0,"componentType":5126,"count":7218,"type":"VEC3","min":[-1,-1,-1],"max":[1,1,1]},{"bufferView":3,"byteOffset":0,"componentType":5126,"count":7218,"type":"VEC2","min":[0,0],"max":[1,1]}],"extensions":{"KHR_lights_punctual":{"lights":[]}},"extensionsUsed":["KHR_lights_punctual"]}