{"asset":{"generator":"Khronos glTF Spline I/O v0.0.1","version":"2.0"},"scenes":[{"nodes":[0]}],"nodes":[{"name":"","children":[1,2,6,10],"matrix":[0.01,0,0,0,0,0.01,0,0,0,0,0.01,0,0,0,0,1]},{"name":"","camera":0,"translation":[51.58174612343465,21.27367474367951,1000],"rotation":[-3.019806626980426e-17,0,0,1]},{"name":"Group","matrix":[0.009999333328008954,0,0,0,0,0.003689604106786353,0,0,0,0,0.009999999993471068,0,-0.1266530940792535,-0.02113671822823377,1.0360765633044429,0.9999999999999998],"children":[3,4,5]},{"name":"Rectangle_4_1","matrix":[1,0,0,0,0,1,0,0,0,0,1,0,-8738.316341698932,-991.1314050730156,-39.73187540443369,1],"mesh":0},{"name":"Rectangle_2_1","matrix":[1,0,0,0,0,1,0,0,0,0,1,0,8638.623798137318,1103.510983743906,0,1],"mesh":1},{"name":"Rectangle_1","matrix":[1,0,0,0,0,1,0,0,0,0,1,0,334.6426322693354,6854.8676883564485,1.6231335407352e-14,1],"mesh":2},{"name":"Group_2","matrix":[0.009999333328008954,0,0,0,0,0.003689604106786353,0,0,0,0,0.009999999993471068,0,0,-0.02113671822823377,1.0360765633044429,0.9999999999999998],"children":[7,8,9]},{"name":"Rectangle_4","matrix":[1,0,0,0,0,1,0,0,0,0,1,0,-8737.891775616745,-5487.553524597487,-39.731875408492456,1],"mesh":3},{"name":"Rectangle_3","matrix":[1,0,0,0,0,1,0,0,0,0,1,0,-409.73887554891854,-16020.350747003653,-4.869400622205602e-14,1],"mesh":4},{"name":"Rectangle_2","matrix":[1,0,0,0,0,1,0,0,0,0,1,0,8638.623798137318,-3472.818124103483,-57.09263150819522,1],"mesh":5},{"name":"Text","matrix":[1,0,0,0,0,1,0,0,0,0,1,0,-1.5164925723711207,-12.891654313965518,3,1],"mesh":6}],"cameras":[{"type":"orthographic","orthographic":{"xmag":1440,"ymag":810,"zfar":100000,"znear":-100000}}],"meshes":[{"primitives":[{"attributes":{"POSITION":1,"NORMAL":2,"TEXCOORD_0":3},"indices":0}]},{"primitives":[{"attributes":{"POSITION":5,"NORMAL":6,"TEXCOORD_0":7},"indices":4}]},{"primitives":[{"attributes":{"POSITION":9,"NORMAL":10,"TEXCOORD_0":11},"indices":8}]},{"primitives":[{"attributes":{"POSITION":13,"NORMAL":14,"TEXCOORD_0":15},"indices":12}]},{"primitives":[{"attributes":{"POSITION":17,"NORMAL":18,"TEXCOORD_0":19},"indices":16}]},{"primitives":[{"attributes":{"POSITION":21,"NORMAL":22,"TEXCOORD_0":23},"indices":20}]},{"primitives":[{"attributes":{"POSITION":25,"NORMAL":26,"TEXCOORD_0":27},"indices":24}]}],"buffers":[{"uri":"data:application/octet-stream;base64,","byteLength":912},{"uri":"data:application/octet-stream;base64,","byteLength":912},{"uri":"data:application/octet-stream;base64,","byteLength":912},{"uri":"data:application/octet-stream;base64,","byteLength":912},{"uri":"data:application/octet-stream;base64,","byteLength":912},{"uri":"data:application/octet-stream;base64,","byteLength":912},{"uri":"data:application/octet-stream;base64,","byteLength":533404}],"bufferViews":[{"buffer":0,"byteOffset":0,"byteLength":144,"target":34963},{"buffer":0,"byteOffset":144,"byteLength":288,"target":34962},{"buffer":0,"byteOffset":432,"byteLength":288,"target":34962},{"buffer":0,"byteOffset":720,"byteLength":192,"target":34962},{"buffer":1,"byteOffset":0,"byteLength":144,"target":34963},{"buffer":1,"byteOffset":144,"byteLength":288,"target":34962},{"buffer":1,"byteOffset":432,"byteLength":288,"target":34962},{"buffer":1,"byteOffset":720,"byteLength":192,"target":34962},{"buffer":2,"byteOffset":0,"byteLength":144,"target":34963},{"buffer":2,"byteOffset":144,"byteLength":288,"target":34962},{"buffer":2,"byteOffset":432,"byteLength":288,"target":34962},{"buffer":2,"byteOffset":720,"byteLength":192,"target":34962},{"buffer":3,"byteOffset":0,"byteLength":144,"target":34963},{"buffer":3,"byteOffset":144,"byteLength":288,"target":34962},{"buffer":3,"byteOffset":432,"byteLength":288,"target":34962},{"buffer":3,"byteOffset":720,"byteLength":192,"target":34962},{"buffer":4,"byteOffset":0,"byteLength":144,"target":34963},{"buffer":4,"byteOffset":144,"byteLength":288,"target":34962},{"buffer":4,"byteOffset":432,"byteLength":288,"target":34962},{"buffer":4,"byteOffset":720,"byteLength":192,"target":34962},{"buffer":5,"byteOffset":0,"byteLength":144,"target":34963},{"buffer":5,"byteOffset":144,"byteLength":288,"target":34962},{"buffer":5,"byteOffset":432,"byteLength":288,"target":34962},{"buffer":5,"byteOffset":720,"byteLength":192,"target":34962},{"buffer":6,"byteOffset":0,"byteLength":83676,"target":34963},{"buffer":6,"byteOffset":83676,"byteLength":168648,"target":34962},{"buffer":6,"byteOffset":252324,"byteLength":168648,"target":34962},{"buffer":6,"byteOffset":420972,"byteLength":112432,"target":34962}],"accessors":[{"bufferView":0,"byteOffset":0,"componentType":5125,"count":36,"type":"SCALAR","min":[0],"max":[23]},{"bufferView":1,"byteOffset":0,"componentType":5126,"count":24,"type":"VEC3","min":[-73.09943389892578,-7951.65185546875,0],"max":[73.09943389892578,7951.65185546875,39.731876373291016]},{"bufferView":2,"byteOffset":0,"componentType":5126,"count":24,"type":"VEC3","min":[-0.00919259898364544,-0.9999577403068542,0],"max":[0.00919259898364544,0.9999577403068542,0.004996408708393574]},{"bufferView":3,"byteOffset":0,"componentType":5126,"count":24,"type":"VEC2","min":[-217.55712890625,-217.55712890625],"max":[217.55712890625,217.55712890625]},{"bufferView":4,"byteOffset":0,"componentType":5125,"count":36,"type":"SCALAR","min":[0],"max":[23]},{"bufferView":5,"byteOffset":0,"componentType":5126,"count":24,"type":"VEC3","min":[-73.09943389892578,-8064.0390625,0],"max":[73.09943389892578,8064.0390625,146.19886779785156]},{"bufferView":6,"byteOffset":0,"componentType":5126,"count":24,"type":"VEC3","min":[-0.00906449370086193,-0.9999589323997498,0],"max":[0.00906449370086193,0.9999589323997498,0.01812600903213024]},{"bufferView":7,"byteOffset":0,"componentType":5126,"count":24,"type":"VEC2","min":[-220.63204956054688,-220.63204956054688],"max":[220.63204956054688,220.63204956054688]},{"bufferView":8,"byteOffset":0,"componentType":5125,"count":36,"type":"SCALAR","min":[0],"max":[23]},{"bufferView":9,"byteOffset":0,"componentType":5126,"count":24,"type":"VEC3","min":[-9133.9462890625,-206.4685821533203,0],"max":[9133.9462890625,206.4685821533203,146.19886779785156]},{"bufferView":10,"byteOffset":0,"componentType":5126,"count":24,"type":"VEC3","min":[-0.9997445940971375,-0.022598760202527046,0],"max":[0.9997445940971375,0.022598760202527046,0.015999965369701385]},{"bufferView":11,"byteOffset":0,"componentType":5126,"count":24,"type":"VEC2","min":[-249.9047088623047,-249.9047088623047],"max":[249.9047088623047,249.9047088623047]},{"bufferView":12,"byteOffset":0,"componentType":5125,"count":36,"type":"SCALAR","min":[0],"max":[23]},{"bufferView":13,"byteOffset":0,"componentType":5126,"count":24,"type":"VEC3","min":[-72.67487335205078,-12448.07421875,0],"max":[72.67487335205078,12448.07421875,39.59446334838867]},{"bufferView":14,"byteOffset":0,"componentType":5126,"count":24,"type":"VEC3","min":[-0.005838142707943916,-0.9999829530715942,0],"max":[0.005838142707943916,0.9999829530715942,0.0031806998886168003]},{"bufferView":15,"byteOffset":0,"componentType":5126,"count":24,"type":"VEC2","min":[-340.5792236328125,-340.5792236328125],"max":[340.5792236328125,340.5792236328125]},{"bufferView":16,"byteOffset":0,"componentType":5125,"count":36,"type":"SCALAR","min":[0],"max":[23]},{"bufferView":17,"byteOffset":0,"componentType":5126,"count":24,"type":"VEC3","min":[-9103.14453125,-196.4283447265625,0],"max":[9103.14453125,196.4283447265625,125.41471862792969]},{"bufferView":18,"byteOffset":0,"componentType":5126,"count":24,"type":"VEC3","min":[-0.9997673034667969,-0.021573053672909737,0],"max":[0.9997673034667969,0.021573053672909737,0.013772564008831978]},{"bufferView":19,"byteOffset":0,"componentType":5126,"count":24,"type":"VEC2","min":[-249.0619659423828,-249.0619659423828],"max":[249.0619659423828,249.0619659423828]},{"bufferView":20,"byteOffset":0,"componentType":5125,"count":36,"type":"SCALAR","min":[0],"max":[23]},{"bufferView":21,"byteOffset":0,"componentType":5126,"count":24,"type":"VEC3","min":[-73.09943389892578,-12640.369140625,0],"max":[73.09943389892578,12640.369140625,57.092628479003906]},{"bufferView":22,"byteOffset":0,"componentType":5126,"count":24,"type":"VEC3","min":[-0.005782917607575655,-0.9999832510948181,0],"max":[0.005782917607575655,0.9999832510948181,0.004516568500548601]},{"bufferView":23,"byteOffset":0,"componentType":5126,"count":24,"type":"VEC2","min":[-345.84039306640625,-345.84039306640625],"max":[345.84039306640625,345.84039306640625]},{"bufferView":24,"byteOffset":0,"componentType":5123,"count":41838,"type":"SCALAR","min":[0],"max":[14053]},{"bufferView":25,"byteOffset":0,"componentType":5126,"count":14054,"type":"VEC3","min":[-71.28550720214844,-25.546537399291992,0],"max":[58.23348617553711,21.883460998535156,0]},{"bufferView":26,"byteOffset":0,"componentType":5126,"count":14054,"type":"VEC3","min":[0,0,1],"max":[0,0,1]},{"bufferView":27,"byteOffset":0,"componentType":5126,"count":14054,"type":"VEC2","min":[0,0],"max":[1,1]}],"extensions":{"KHR_lights_punctual":{"lights":[]}},"extensionsUsed":["KHR_lights_punctual"]}