{"asset":{"generator":"Khronos glTF Spline I/O v0.0.1","version":"2.0"},"scenes":[{"nodes":[0]}],"nodes":[{"name":"","children":[1,2,7,8],"matrix":[0.01,0,0,0,0,0.01,0,0,0,0,0.01,0,0,0,0,1]},{"name":"","camera":0,"translation":[-78.08498486005698,-122.66756276982944,1120.8830043136227],"rotation":[0.004671220597115798,-0.07773515649136344,0.0003641994154242769,0.9969630346718888]},{"name":"Group","matrix":[0.9999333328008954,0,0,0,0,0.36896041067863533,0,0,0,0,0.9999999993471069,0,-0.3465227663846128,-0.0578300445479556,2.8347046672058234,0.9999999999999999],"children":[3,4,5,6]},{"name":"Rectangle","matrix":[1,0,0,0,0,1,0,0,0,0,1,0,9.15581980268368,187.549126362707,4.440892098500626e-16,1],"mesh":0},{"name":"Rectangle 2","matrix":[1,0,0,0,0,1,0,0,0,0,1,0,236.35267958107028,30.19205188808584,0,1],"mesh":1},{"name":"Rectangle 3","matrix":[1,0,0,0,0,1,0,0,0,0,1,0,-11.210452431717549,-186.91110192987117,-1.3322676295501882e-15,1],"mesh":2},{"name":"Rectangle 4","matrix":[1,0,0,0,0,1,0,0,0,0,1,0,-239.0802667935289,-27.11734749422349,-1.0870638004451563,1],"mesh":3},{"name":"Titel","matrix":[1,0,0,0,0,1,0,0,0,0,1,0,64.24460266303988,0,2.8347046769992197,1],"mesh":4},{"name":"01","matrix":[1,0,0,0,0,1,0,0,0,0,1,0,-139.1332258856962,-11.72329755681676,2.8347046769992197,1],"mesh":5}],"cameras":[{"type":"orthographic","orthographic":{"xmag":1512,"ymag":732,"zfar":100000,"znear":-100000}}],"meshes":[{"primitives":[{"attributes":{"POSITION":1,"NORMAL":2,"TEXCOORD_0":3},"indices":0}]},{"primitives":[{"attributes":{"POSITION":5,"NORMAL":6,"TEXCOORD_0":7},"indices":4}]},{"primitives":[{"attributes":{"POSITION":9,"NORMAL":10,"TEXCOORD_0":11},"indices":8}]},{"primitives":[{"attributes":{"POSITION":13,"NORMAL":14,"TEXCOORD_0":15},"indices":12}]},{"primitives":[{"attributes":{"POSITION":17,"NORMAL":18,"TEXCOORD_0":19},"indices":16}]},{"primitives":[{"attributes":{"POSITION":21,"NORMAL":22,"TEXCOORD_0":23},"indices":20}]}],"buffers":[{"uri":"data:application/octet-stream;base64,","byteLength":2448},{"uri":"data:application/octet-stream;base64,","byteLength":2448},{"uri":"data:application/octet-stream;base64,","byteLength":2448},{"uri":"data:application/octet-stream;base64,","byteLength":2448},{"uri":"data:application/octet-stream;base64,","byteLength":161448},{"uri":"data:application/octet-stream;base64,","byteLength":17424}],"bufferViews":[{"buffer":0,"byteOffset":0,"byteLength":144,"target":34963},{"buffer":0,"byteOffset":144,"byteLength":768,"target":34962},{"buffer":0,"byteOffset":912,"byteLength":768,"target":34962},{"buffer":0,"byteOffset":1680,"byteLength":768,"target":34962},{"buffer":1,"byteOffset":0,"byteLength":144,"target":34963},{"buffer":1,"byteOffset":144,"byteLength":768,"target":34962},{"buffer":1,"byteOffset":912,"byteLength":768,"target":34962},{"buffer":1,"byteOffset":1680,"byteLength":768,"target":34962},{"buffer":2,"byteOffset":0,"byteLength":144,"target":34963},{"buffer":2,"byteOffset":144,"byteLength":768,"target":34962},{"buffer":2,"byteOffset":912,"byteLength":768,"target":34962},{"buffer":2,"byteOffset":1680,"byteLength":768,"target":34962},{"buffer":3,"byteOffset":0,"byteLength":144,"target":34963},{"buffer":3,"byteOffset":144,"byteLength":768,"target":34962},{"buffer":3,"byteOffset":912,"byteLength":768,"target":34962},{"buffer":3,"byteOffset":1680,"byteLength":768,"target":34962},{"buffer":4,"byteOffset":0,"byteLength":25734,"target":34963},{"buffer":4,"byteOffset":25736,"byteLength":50892,"target":34962},{"buffer":4,"byteOffset":76628,"byteLength":50892,"target":34962},{"buffer":4,"byteOffset":127520,"byteLength":33928,"target":34962},{"buffer":5,"byteOffset":0,"byteLength":2766,"target":34963},{"buffer":5,"byteOffset":2768,"byteLength":5496,"target":34962},{"buffer":5,"byteOffset":8264,"byteLength":5496,"target":34962},{"buffer":5,"byteOffset":13760,"byteLength":3664,"target":34962}],"accessors":[{"bufferView":0,"byteOffset":0,"componentType":5125,"count":36,"type":"SCALAR","min":[0],"max":[23]},{"bufferView":1,"byteOffset":0,"componentType":5126,"count":24,"type":"VEC3","min":[-249.9047088623047,-5.6489787101745605,0],"max":[249.9047088623047,5.6489787101745605,4]},{"bufferView":2,"byteOffset":0,"componentType":5126,"count":24,"type":"VEC3","min":[-1,-1,-1],"max":[1,1,1]},{"bufferView":3,"byteOffset":0,"componentType":5126,"count":24,"type":"VEC2","min":[0,0],"max":[1,1]},{"bufferView":4,"byteOffset":0,"componentType":5125,"count":36,"type":"SCALAR","min":[0],"max":[23]},{"bufferView":5,"byteOffset":0,"componentType":5126,"count":24,"type":"VEC3","min":[-2,-220.63204956054688,0],"max":[2,220.63204956054688,4]},{"bufferView":6,"byteOffset":0,"componentType":5126,"count":24,"type":"VEC3","min":[-1,-1,-1],"max":[1,1,1]},{"bufferView":7,"byteOffset":0,"componentType":5126,"count":24,"type":"VEC2","min":[0,0],"max":[1,1]},{"bufferView":8,"byteOffset":0,"componentType":5125,"count":36,"type":"SCALAR","min":[0],"max":[23]},{"bufferView":9,"byteOffset":0,"componentType":5126,"count":24,"type":"VEC3","min":[-249.0619659423828,-5.3742780685424805,0],"max":[249.0619659423828,5.3742780685424805,3.4313457012176514]},{"bufferView":10,"byteOffset":0,"componentType":5126,"count":24,"type":"VEC3","min":[-1,-1,-1],"max":[1,1,1]},{"bufferView":11,"byteOffset":0,"componentType":5126,"count":24,"type":"VEC2","min":[0,0],"max":[1,1]},{"bufferView":12,"byteOffset":0,"componentType":5125,"count":36,"type":"SCALAR","min":[0],"max":[23]},{"bufferView":13,"byteOffset":0,"componentType":5126,"count":24,"type":"VEC3","min":[-2,-217.55712890625,0],"max":[2,217.55712890625,1.0870637893676758]},{"bufferView":14,"byteOffset":0,"componentType":5126,"count":24,"type":"VEC3","min":[-1,-1,-1],"max":[1,1,1]},{"bufferView":15,"byteOffset":0,"componentType":5126,"count":24,"type":"VEC2","min":[0,0],"max":[1,1]},{"bufferView":16,"byteOffset":0,"componentType":5123,"count":12867,"type":"SCALAR","min":[0],"max":[4240]},{"bufferView":17,"byteOffset":0,"componentType":5126,"count":4241,"type":"VEC3","min":[-132.01959228515625,-31.15302276611328,0],"max":[110.33240509033203,29.876976013183594,0]},{"bufferView":18,"byteOffset":0,"componentType":5126,"count":4241,"type":"VEC3","min":[0,0,1],"max":[0,0,1]},{"bufferView":19,"byteOffset":0,"componentType":5126,"count":4241,"type":"VEC2","min":[0,0],"max":[1,1]},{"bufferView":20,"byteOffset":0,"componentType":5123,"count":1383,"type":"SCALAR","min":[0],"max":[457]},{"bufferView":21,"byteOffset":0,"componentType":5126,"count":458,"type":"VEC3","min":[-44.93600082397461,-20.631126403808594,0],"max":[45.91999816894531,37.58887481689453,0]},{"bufferView":22,"byteOffset":0,"componentType":5126,"count":458,"type":"VEC3","min":[0,0,1],"max":[0,0,1]},{"bufferView":23,"byteOffset":0,"componentType":5126,"count":458,"type":"VEC2","min":[0,0],"max":[1,1]}],"extensions":{"KHR_lights_punctual":{"lights":[]}},"extensionsUsed":["KHR_lights_punctual"]}