{"asset":{"generator":"Khronos glTF Spline I/O v0.0.1","version":"2.0"},"scenes":[{"nodes":[0]}],"nodes":[{"name":"","children":[1,2,3,4,5,6,7],"matrix":[0.01,0,0,0,0,0.01,0,0,0,0,0.01,0,0,0,0,1]},{"name":"","camera":0,"translation":[17.889190442662397,-130.07448022244432,1135.8708801199684],"rotation":[0.004671220597115798,-0.07773515649136344,0.0003641994154242769,0.9969630346718888]},{"name":"Rectangle","matrix":[0.9999333328008954,0,0,0,0,0.36896041067863533,0,0,0,0,0.9999999993471069,0,8.808686643437314,69.14037264065567,2.834704667205824,0.9999999999999999],"mesh":0},{"name":"Rectangle 2","matrix":[0.9999333328008954,0,0,0,0,0.36896041067863533,0,0,0,0,0.9999999993471069,0,235.99039984353706,11.081841819310862,2.8347046672058234,0.9999999999999999],"mesh":1},{"name":"Rectangle 3","matrix":[0.9999333328008954,0,0,0,0,0.36896041067863533,0,0,0,0,0.9999999993471069,0,-11.556227828637843,-69.02062697298948,2.834704667205822,0.9999999999999999],"mesh":2},{"name":"Rectangle 4","matrix":[0.9999333328008954,0,0,0,0,0.36896041067863533,0,0,0,0,0.9999999993471069,0,-239.4108507481652,-10.063057712531915,1.7476408674704038,0.9999999999999999],"mesh":3},{"name":"Titel","matrix":[1,0,0,0,0,1,0,0,0,0,1,0,84.24460266303988,0,2.8347046769992197,1],"mesh":4},{"name":"01","matrix":[1,0,0,0,0,1,0,0,0,0,1,0,-112.13322588569619,-11.72329755681676,2.8347046769992197,1],"mesh":5}],"cameras":[{"type":"orthographic","orthographic":{"xmag":1512,"ymag":732,"zfar":100000,"znear":-100000}}],"meshes":[{"primitives":[{"attributes":{"POSITION":1,"NORMAL":2,"TEXCOORD_0":3},"indices":0}]},{"primitives":[{"attributes":{"POSITION":5,"NORMAL":6,"TEXCOORD_0":7},"indices":4}]},{"primitives":[{"attributes":{"POSITION":9,"NORMAL":10,"TEXCOORD_0":11},"indices":8}]},{"primitives":[{"attributes":{"POSITION":13,"NORMAL":14,"TEXCOORD_0":15},"indices":12}]},{"primitives":[{"attributes":{"POSITION":17,"NORMAL":18,"TEXCOORD_0":19},"indices":16}]},{"primitives":[{"attributes":{"POSITION":21,"NORMAL":22,"TEXCOORD_0":23},"indices":20}]}],"buffers":[{"uri":"data:application/octet-stream;base64,","byteLength":2448},{"uri":"data:application/octet-stream;base64,","byteLength":2448},{"uri":"data:application/octet-stream;base64,","byteLength":2448},{"uri":"data:application/octet-stream;base64,","byteLength":2448},{"uri":"data:application/octet-stream;base64,","byteLength":153496},{"uri":"data:application/octet-stream;base64,","byteLength":11248}],"bufferViews":[{"buffer":0,"byteOffset":0,"byteLength":144,"target":34963},{"buffer":0,"byteOffset":144,"byteLength":768,"target":34962},{"buffer":0,"byteOffset":912,"byteLength":768,"target":34962},{"buffer":0,"byteOffset":1680,"byteLength":768,"target":34962},{"buffer":1,"byteOffset":0,"byteLength":144,"target":34963},{"buffer":1,"byteOffset":144,"byteLength":768,"target":34962},{"buffer":1,"byteOffset":912,"byteLength":768,"target":34962},{"buffer":1,"byteOffset":1680,"byteLength":768,"target":34962},{"buffer":2,"byteOffset":0,"byteLength":144,"target":34963},{"buffer":2,"byteOffset":144,"byteLength":768,"target":34962},{"buffer":2,"byteOffset":912,"byteLength":768,"target":34962},{"buffer":2,"byteOffset":1680,"byteLength":768,"target":34962},{"buffer":3,"byteOffset":0,"byteLength":144,"target":34963},{"buffer":3,"byteOffset":144,"byteLength":768,"target":34962},{"buffer":3,"byteOffset":912,"byteLength":768,"target":34962},{"buffer":3,"byteOffset":1680,"byteLength":768,"target":34962},{"buffer":4,"byteOffset":0,"byteLength":24438,"target":34963},{"buffer":4,"byteOffset":24440,"byteLength":48396,"target":34962},{"buffer":4,"byteOffset":72836,"byteLength":48396,"target":34962},{"buffer":4,"byteOffset":121232,"byteLength":32264,"target":34962},{"buffer":5,"byteOffset":0,"byteLength":1776,"target":34963},{"buffer":5,"byteOffset":1776,"byteLength":3552,"target":34962},{"buffer":5,"byteOffset":5328,"byteLength":3552,"target":34962},{"buffer":5,"byteOffset":8880,"byteLength":2368,"target":34962}],"accessors":[{"bufferView":0,"byteOffset":0,"componentType":5125,"count":36,"type":"SCALAR","min":[0],"max":[23]},{"bufferView":1,"byteOffset":0,"componentType":5126,"count":24,"type":"VEC3","min":[-249.9047088623047,-5.6489787101745605,0],"max":[249.9047088623047,5.6489787101745605,4]},{"bufferView":2,"byteOffset":0,"componentType":5126,"count":24,"type":"VEC3","min":[-1,-1,-1],"max":[1,1,1]},{"bufferView":3,"byteOffset":0,"componentType":5126,"count":24,"type":"VEC2","min":[0,0],"max":[1,1]},{"bufferView":4,"byteOffset":0,"componentType":5125,"count":36,"type":"SCALAR","min":[0],"max":[23]},{"bufferView":5,"byteOffset":0,"componentType":5126,"count":24,"type":"VEC3","min":[-2,-220.63204956054688,0],"max":[2,220.63204956054688,4]},{"bufferView":6,"byteOffset":0,"componentType":5126,"count":24,"type":"VEC3","min":[-1,-1,-1],"max":[1,1,1]},{"bufferView":7,"byteOffset":0,"componentType":5126,"count":24,"type":"VEC2","min":[0,0],"max":[1,1]},{"bufferView":8,"byteOffset":0,"componentType":5125,"count":36,"type":"SCALAR","min":[0],"max":[23]},{"bufferView":9,"byteOffset":0,"componentType":5126,"count":24,"type":"VEC3","min":[-249.0619659423828,-5.3742780685424805,0],"max":[249.0619659423828,5.3742780685424805,3.4313457012176514]},{"bufferView":10,"byteOffset":0,"componentType":5126,"count":24,"type":"VEC3","min":[-1,-1,-1],"max":[1,1,1]},{"bufferView":11,"byteOffset":0,"componentType":5126,"count":24,"type":"VEC2","min":[0,0],"max":[1,1]},{"bufferView":12,"byteOffset":0,"componentType":5125,"count":36,"type":"SCALAR","min":[0],"max":[23]},{"bufferView":13,"byteOffset":0,"componentType":5126,"count":24,"type":"VEC3","min":[-2,-217.55712890625,0],"max":[2,217.55712890625,1.0870637893676758]},{"bufferView":14,"byteOffset":0,"componentType":5126,"count":24,"type":"VEC3","min":[-1,-1,-1],"max":[1,1,1]},{"bufferView":15,"byteOffset":0,"componentType":5126,"count":24,"type":"VEC2","min":[0,0],"max":[1,1]},{"bufferView":16,"byteOffset":0,"componentType":5123,"count":12219,"type":"SCALAR","min":[0],"max":[4032]},{"bufferView":17,"byteOffset":0,"componentType":5126,"count":4033,"type":"VEC3","min":[-132.32559204101562,-37.7490234375,0],"max":[52.80440139770508,28.34697723388672,0]},{"bufferView":18,"byteOffset":0,"componentType":5126,"count":4033,"type":"VEC3","min":[0,0,1],"max":[0,0,1]},{"bufferView":19,"byteOffset":0,"componentType":5126,"count":4033,"type":"VEC2","min":[0,0],"max":[1,1]},{"bufferView":20,"byteOffset":0,"componentType":5123,"count":888,"type":"SCALAR","min":[0],"max":[295]},{"bufferView":21,"byteOffset":0,"componentType":5126,"count":296,"type":"VEC3","min":[-36.94099807739258,-20.631126403808594,0],"max":[31.446998596191406,37.58887481689453,0]},{"bufferView":22,"byteOffset":0,"componentType":5126,"count":296,"type":"VEC3","min":[0,0,1],"max":[0,0,1]},{"bufferView":23,"byteOffset":0,"componentType":5126,"count":296,"type":"VEC2","min":[0,0],"max":[1,1]}],"extensions":{"KHR_lights_punctual":{"lights":[]}},"extensionsUsed":["KHR_lights_punctual"]}